<svg width="2192" height="2500" viewBox="0 0 2192 2500" fill="none" xmlns="http://www.w3.org/2000/svg">
<path d="M1915.98 490.925C1914.26 478.425 1903.31 471.507 1894.26 470.745C1885.23 469.991 1694.07 455.822 1694.07 455.822C1694.07 455.822 1561.3 324.015 1546.73 309.426C1532.15 294.846 1503.67 299.281 1492.62 302.534C1490.99 303.014 1463.61 311.464 1418.32 325.479C1373.97 197.86 1295.7 80.5822 1158 80.5822C1154.2 80.5822 1150.29 80.7363 1146.38 80.9589C1107.22 29.1696 1058.71 6.66956 1016.8 6.66956C696.043 6.66956 542.798 407.654 494.75 611.421C370.11 650.043 281.565 677.5 270.255 681.053C200.683 702.877 198.483 705.069 189.348 770.625C182.473 820.257 0.434967 2228.04 0.434967 2228.04L1418.91 2493.81L2187.49 2327.54C2187.49 2327.54 1917.68 503.425 1915.98 490.925ZM1339.92 349.726L1219.9 386.875C1219.94 378.416 1219.98 370.094 1219.98 360.993C1219.98 281.678 1208.97 217.817 1191.31 167.192C1262.26 176.096 1309.51 256.824 1339.92 349.726ZM1103.29 182.92C1123.02 232.346 1135.85 303.279 1135.85 398.998C1135.85 403.896 1135.8 408.373 1135.76 412.902C1057.7 437.081 972.884 463.331 887.875 489.666C935.606 305.454 1025.08 216.481 1103.29 182.92ZM1007.99 92.7055C1021.84 92.7055 1035.79 97.4059 1049.13 106.592C946.334 154.966 836.146 276.798 789.613 520.094L593.671 580.779C648.175 395.206 777.601 92.7055 1007.99 92.7055Z" fill="#5D5D99"/>
<path d="M1894.26 470.745C1885.23 469.991 1694.07 455.822 1694.07 455.822C1694.07 455.822 1561.3 324.015 1546.73 309.426C1541.27 303.998 1533.92 301.216 1526.23 300.017L1418.98 2493.79L2187.49 2327.54C2187.49 2327.54 1917.68 503.425 1915.98 490.925C1914.26 478.425 1903.31 471.507 1894.26 470.745Z" fill="url(#paint0_linear_4_8)"/>
<path d="M1158 895.42L1063.23 1177.32C1063.23 1177.32 980.204 1133.01 878.423 1133.01C729.211 1133.01 721.702 1226.64 721.702 1250.24C721.702 1378.99 1057.32 1428.32 1057.32 1729.9C1057.32 1967.17 906.831 2119.95 703.92 2119.95C460.426 2119.95 335.906 1968.41 335.906 1968.41L401.103 1753C401.103 1753 529.099 1862.89 637.105 1862.89C707.678 1862.89 736.385 1807.32 736.385 1766.72C736.385 1598.78 461.043 1591.28 461.043 1315.32C461.043 1083.05 627.755 858.279 964.279 858.279C1093.95 858.279 1158 895.42 1158 895.42Z" fill="white"/>
<defs>
<linearGradient id="paint0_linear_4_8" x1="1803.23" y1="300.017" x2="1803.23" y2="2493.79" gradientUnits="userSpaceOnUse">
<stop stop-color="#7B81EC"/>
<stop offset="0.48" stop-color="#5D5D99"/>
<stop offset="0.755" stop-color="#372F2F"/>
</linearGradient>
</defs>
</svg>
